<?xml version="1.0" standalone="no"?>
<!DOCTYPE svg PUBLIC "-//W3C//DTD SVG 20010904//EN"
 "http://www.w3.org/TR/2001/REC-SVG-20010904/DTD/svg10.dtd">
<svg version="1.0" xmlns="http://www.w3.org/2000/svg"
 width="2946.000000pt" height="1375.000000pt" viewBox="0 0 2946.000000 1375.000000"
 preserveAspectRatio="xMidYMid meet">

<g transform="translate(0.000000,1375.000000) scale(0.100000,-0.100000)"
fill="#000000" stroke="none">
<path d="M4665 13739 c-437 -46 -846 -333 -1048 -735 -42 -83 -90 -221 -112
-324 -22 -100 -31 -350 -16 -448 45 -288 158 -524 353 -737 l50 -55 926 2 926
3 76 88 c534 619 407 1543 -273 1994 -258 171 -567 245 -882 212z"/>
<path d="M11860 11050 c0 -39 4 -52 18 -57 9 -3 36 -14 59 -25 79 -36 74 33
71 -1040 l-3 -953 -23 -44 c-31 -56 -63 -86 -135 -123 -34 -17 -57 -34 -54
-41 3 -7 17 -43 32 -82 16 -38 32 -74 36 -79 11 -13 147 37 252 92 168 88 271
198 319 342 22 64 22 73 28 945 5 776 7 884 21 915 21 44 45 66 95 83 38 14
39 15 42 65 l3 52 -380 0 -381 0 0 -50z"/>
<path d="M13380 10573 c-95 -17 -310 -85 -412 -132 l-68 -31 0 -130 0 -130
139 0 139 0 13 52 c31 131 86 200 175 218 59 12 122 6 167 -16 67 -35 107
-154 107 -322 l0 -111 -57 -6 c-126 -14 -300 -46 -374 -70 -173 -54 -302 -145
-358 -250 -24 -45 -26 -60 -26 -160 0 -100 2 -115 27 -161 36 -68 115 -138
186 -164 34 -13 92 -24 142 -27 152 -9 291 40 421 150 38 31 73 57 79 57 7 0
8 -32 4 -95 l-7 -95 272 0 272 0 -3 52 -3 51 -49 17 c-28 9 -58 27 -68 41 -31
41 -38 132 -38 514 0 210 -5 398 -11 435 -20 129 -87 229 -185 279 -96 50
-310 65 -484 34z m260 -892 c0 -114 -3 -147 -19 -183 -39 -91 -124 -147 -224
-148 -115 0 -172 56 -171 170 1 85 18 134 66 186 57 62 189 111 306 113 l42 1
0 -139z"/>
<path d="M15263 10575 c-29 -8 -79 -28 -111 -44 -52 -26 -80 -47 -195 -140
l-30 -25 7 90 c4 49 10 97 12 107 5 16 -6 17 -134 17 -76 0 -207 -3 -290 -7
l-152 -6 0 -54 c0 -44 3 -53 18 -53 9 0 36 -9 60 -20 81 -37 77 11 77 -885 l0
-790 -22 -42 c-17 -32 -33 -45 -68 -58 l-45 -18 0 -53 0 -54 355 0 355 0 0 54
c0 53 -1 55 -32 61 -54 12 -94 49 -107 99 -6 25 -11 125 -11 227 l0 182 43 -8
c232 -39 399 -29 542 33 164 71 261 188 322 389 25 83 26 101 27 293 1 240
-13 327 -74 458 -43 91 -117 175 -188 211 -95 48 -254 64 -359 36z m36 -240
c91 -46 139 -195 148 -455 14 -392 -75 -590 -267 -590 -69 0 -127 26 -167 74
-54 66 -56 83 -60 440 -3 182 -2 344 1 362 15 76 103 163 189 185 40 10 122 2
156 -16z"/>
<path d="M16670 10573 c-94 -16 -308 -85 -412 -132 l-68 -30 0 -131 0 -130
139 0 139 0 13 53 c19 81 44 131 84 170 60 58 158 71 250 32 73 -30 115 -149
115 -327 l0 -107 -57 -6 c-126 -14 -300 -46 -374 -70 -170 -53 -307 -149 -357
-247 -44 -90 -46 -229 -2 -321 30 -64 116 -140 188 -167 121 -46 293 -35 415
26 60 31 163 102 191 133 39 43 46 29 39 -74 l-6 -95 266 0 267 0 0 53 0 53
-47 15 c-56 17 -83 50 -94 116 -4 26 -8 219 -8 428 -1 214 -6 408 -12 445 -20
129 -87 229 -185 279 -96 50 -310 65 -484 34z m260 -892 c0 -114 -3 -147 -19
-183 -39 -92 -124 -147 -226 -148 -117 0 -170 55 -169 175 0 80 25 146 70 189
56 54 197 103 302 105 l42 1 0 -139z"/>
<path d="M18550 10568 c-82 -29 -140 -63 -234 -137 -40 -33 -76 -58 -78 -56
-2 3 -1 30 3 62 4 32 8 77 8 101 l1 42 -142 0 c-79 0 -207 -3 -285 -7 l-143
-6 0 -52 0 -53 44 -11 c51 -13 92 -55 101 -104 3 -18 5 -249 3 -514 -3 -467
-4 -482 -24 -510 -11 -15 -39 -37 -62 -48 -41 -20 -41 -21 -42 -72 l0 -53 345
0 345 0 0 55 c0 33 -4 55 -11 55 -36 0 -83 36 -102 79 -19 44 -21 66 -21 436
-1 384 -1 391 21 431 45 84 124 140 211 151 96 11 160 -46 181 -161 14 -77 15
-788 1 -837 -13 -45 -52 -86 -91 -94 -28 -6 -29 -9 -29 -61 l0 -54 350 0 350
0 0 54 c0 51 -2 54 -28 59 -15 3 -40 16 -56 28 -57 45 -58 54 -66 539 -6 385
-9 452 -25 500 -55 174 -160 249 -360 257 -85 3 -110 0 -165 -19z"/>
<path d="M19985 10575 c-253 -58 -423 -217 -495 -465 -34 -114 -39 -350 -11
-485 63 -309 258 -472 587 -492 244 -14 428 50 601 212 l76 70 -60 66 -59 65
-59 -53 c-111 -101 -247 -145 -382 -124 -176 27 -259 127 -293 351 -5 36 -10
80 -10 98 l0 32 451 0 451 0 -7 93 c-27 358 -155 551 -413 623 -78 22 -298 27
-377 9z m232 -162 c19 -9 46 -32 59 -52 30 -46 60 -161 69 -268 l7 -83 -232 0
-233 0 7 62 c18 177 80 309 161 344 42 18 120 17 162 -3z"/>
<path d="M21434 10576 c-144 -27 -236 -71 -313 -149 -59 -59 -87 -113 -100
-194 -19 -118 21 -233 111 -321 73 -71 103 -90 290 -181 231 -113 268 -149
268 -261 0 -87 -37 -145 -109 -169 -79 -26 -222 -6 -280 40 -37 30 -76 89 -99
149 l-20 55 -101 3 -101 3 0 -175 0 -175 38 -10 c53 -15 202 -39 307 -51 370
-41 636 48 729 245 51 107 53 263 4 359 -55 110 -144 178 -367 280 -177 81
-220 109 -248 166 -45 88 -21 178 57 218 34 17 61 22 120 22 125 -1 181 -39
237 -160 l27 -60 98 0 98 0 0 168 0 169 -112 17 c-148 24 -438 30 -534 12z"/>
<path d="M22856 10573 c-311 -66 -496 -300 -521 -658 -9 -121 8 -271 41 -375
63 -201 206 -336 410 -387 97 -24 335 -24 422 0 131 37 232 95 349 202 l63 57
-60 67 -61 67 -52 -48 c-173 -159 -433 -180 -574 -46 -60 58 -112 216 -113
341 l0 57 445 0 445 0 0 73 c0 131 -32 272 -87 381 -71 141 -198 236 -361 271
-91 19 -254 18 -346 -2z m241 -163 c70 -42 109 -143 120 -307 l6 -93 -232 0
-231 0 4 23 c3 12 8 49 11 82 15 135 70 248 141 292 51 30 135 32 181 3z"/>
<path d="M28850 8241 l-105 -6 -3 -51 -3 -50 56 -18 c33 -10 61 -26 70 -40 32
-48 36 -173 33 -911 -3 -685 -4 -732 -21 -767 -20 -39 -49 -63 -91 -74 -24 -6
-26 -10 -26 -60 l0 -54 350 0 350 0 0 54 c0 50 -2 54 -26 60 -40 10 -73 36
-92 70 -16 28 -17 107 -20 944 l-3 912 -182 -2 c-100 -1 -229 -4 -287 -7z"/>
<path d="M23050 8020 l0 -180 200 0 200 0 0 180 0 180 -200 0 -200 0 0 -180z"/>
<path d="M11880 8105 c0 -43 3 -55 15 -55 32 0 95 -41 112 -73 17 -30 18 -83
18 -772 0 -407 -3 -756 -8 -776 -9 -46 -48 -86 -98 -101 -39 -11 -39 -11 -39
-65 l0 -53 375 0 375 0 0 53 0 52 -52 20 c-29 11 -61 32 -72 48 -21 28 -21 36
-24 775 -2 543 0 758 9 789 13 49 36 72 92 94 41 16 42 18 45 68 l3 51 -375 0
-376 0 0 -55z"/>
<path d="M14810 7980 c0 -50 -25 -214 -40 -262 -31 -100 -73 -138 -182 -162
-26 -6 -28 -10 -28 -61 l0 -55 90 0 90 0 0 -437 c1 -320 4 -454 14 -498 40
-185 143 -279 335 -307 168 -25 319 27 500 170 l24 19 -47 62 c-46 60 -49 62
-70 46 -55 -41 -122 -65 -180 -65 -54 0 -61 3 -91 34 -55 59 -58 80 -62 549
l-4 427 200 0 201 0 0 95 0 95 -200 0 -200 0 0 180 0 180 -175 0 c-114 0 -175
-4 -175 -10z"/>
<path d="M22015 7913 c-15 -169 -48 -270 -102 -313 -15 -11 -53 -28 -85 -37
l-58 -16 0 -54 0 -53 90 0 90 0 0 -424 c0 -448 6 -519 48 -616 86 -196 371
-268 612 -154 67 32 210 129 210 143 0 4 -20 32 -45 63 l-44 57 -57 -34 c-66
-40 -106 -50 -172 -42 -36 4 -52 12 -72 36 -49 59 -52 85 -57 544 l-5 427 201
0 201 0 0 95 0 95 -200 0 -200 0 0 180 0 180 -174 0 -174 0 -7 -77z"/>
<path d="M13730 7627 c-95 -32 -167 -78 -294 -186 -18 -16 -19 -13 -11 78 3
52 9 100 12 107 4 12 -25 14 -158 14 -90 0 -221 -3 -291 -7 l-128 -6 0 -54 c0
-44 3 -53 18 -53 41 -1 99 -38 118 -76 17 -36 19 -70 22 -434 2 -217 -1 -441
-6 -498 -11 -119 -25 -146 -90 -177 -42 -19 -42 -20 -42 -72 l0 -53 345 0 345
0 0 54 c0 52 -1 55 -29 61 -36 8 -79 52 -91 96 -6 19 -10 197 -10 419 0 429 0
428 71 498 52 53 105 76 176 76 160 2 190 -109 180 -680 -4 -262 -6 -294 -24
-335 -19 -43 -66 -79 -102 -79 -7 0 -11 -22 -11 -55 l0 -55 350 0 350 0 0 53
c0 54 0 54 -38 65 -48 15 -77 46 -91 97 -7 25 -11 163 -11 370 0 557 -20 663
-146 774 -91 80 -275 106 -414 58z"/>
<path d="M16185 7635 c-256 -56 -424 -219 -497 -481 -19 -68 -22 -103 -22
-254 1 -147 4 -188 23 -255 33 -126 75 -201 155 -281 111 -111 230 -158 431
-170 235 -15 419 51 594 212 l77 70 -61 66 -60 65 -60 -54 c-110 -100 -243
-143 -380 -124 -189 27 -277 151 -298 419 l-5 62 449 0 449 0 0 63 c0 80 -24
226 -48 297 -70 202 -203 323 -401 365 -88 18 -263 18 -346 0z m242 -163 c60
-33 106 -151 119 -308 l7 -84 -232 0 -232 0 7 53 c24 202 90 326 188 351 51
13 105 8 143 -12z"/>
<path d="M18065 7636 c-106 -28 -181 -72 -270 -161 -29 -30 -55 -52 -57 -50
-2 2 -1 37 3 77 4 40 8 88 8 106 l1 32 -163 0 c-90 0 -219 -3 -285 -7 l-122
-6 0 -52 0 -53 43 -10 c50 -13 84 -45 97 -93 13 -43 13 -930 0 -983 -12 -56
-40 -89 -88 -106 l-42 -14 0 -53 0 -53 355 0 355 0 0 54 c0 52 -1 55 -30 61
-41 9 -80 42 -98 84 -13 30 -17 95 -20 372 -4 349 3 456 35 507 45 72 106 112
171 112 67 0 119 -49 151 -141 l10 -29 130 0 131 0 0 199 c0 141 -3 202 -12
207 -22 14 -251 14 -303 0z"/>
<path d="M19410 7636 c-76 -21 -157 -67 -245 -137 -47 -38 -86 -65 -88 -61 -2
4 -1 39 4 77 4 39 8 82 8 98 l1 27 -163 0 c-90 0 -219 -3 -285 -7 l-122 -6 0
-52 0 -53 43 -10 c50 -13 84 -45 97 -93 6 -20 10 -225 10 -499 -1 -487 -3
-514 -46 -561 -9 -10 -35 -24 -56 -31 -38 -11 -38 -11 -38 -65 l0 -53 350 0
350 0 0 54 c0 52 -1 55 -30 61 -37 8 -85 55 -95 92 -3 15 -9 193 -12 394 -6
433 -4 447 77 528 58 58 128 86 196 78 62 -7 92 -30 122 -95 l27 -57 3 -390
c3 -264 0 -406 -7 -441 -13 -56 -49 -98 -93 -109 -26 -7 -28 -11 -28 -61 l0
-54 350 0 350 0 0 55 c0 43 -3 55 -15 55 -9 0 -33 9 -54 20 -73 37 -74 45 -82
545 -5 368 -9 449 -23 497 -53 183 -176 269 -381 267 -44 0 -100 -6 -125 -13z"/>
<path d="M20790 7629 c-110 -23 -229 -62 -359 -116 l-91 -38 0 -133 0 -133
136 3 137 3 17 60 c33 118 74 173 149 200 125 44 239 -12 275 -136 9 -29 19
-110 23 -180 l6 -127 -64 -6 c-409 -43 -644 -148 -731 -324 -30 -60 -33 -75
-33 -157 0 -82 3 -97 33 -158 39 -79 100 -133 189 -168 85 -33 251 -33 345 -1
71 25 163 80 238 143 25 21 50 39 55 39 4 0 5 -43 3 -95 l-5 -95 268 0 269 0
0 54 c0 51 -2 54 -27 60 -57 14 -84 30 -101 60 -15 27 -18 84 -23 481 -5 358
-10 461 -22 502 -46 157 -130 235 -286 269 -96 20 -286 17 -401 -7z m290 -872
c0 -143 -14 -204 -61 -260 -87 -105 -264 -118 -333 -24 -46 63 -29 213 34 289
52 63 191 115 313 117 l47 1 0 -123z"/>
<path d="M24350 7636 c-149 -32 -260 -93 -352 -195 -132 -147 -190 -368 -167
-638 28 -320 185 -520 464 -590 104 -26 343 -23 448 5 164 45 301 141 376 266
77 128 120 337 108 523 -22 336 -172 541 -452 618 -83 23 -338 29 -425 11z
m267 -164 c36 -20 92 -93 113 -149 39 -105 54 -224 53 -438 0 -269 -28 -391
-106 -474 -90 -94 -240 -79 -314 32 -67 101 -94 248 -94 510 1 293 44 449 142
511 53 33 152 37 206 8z"/>
<path d="M26318 7626 c-77 -27 -120 -52 -202 -115 -32 -25 -70 -55 -84 -65
l-25 -20 7 65 c3 35 9 83 12 107 l6 42 -163 0 c-90 0 -221 -3 -291 -7 l-128
-6 0 -54 c0 -44 3 -53 18 -53 37 -1 101 -39 119 -72 17 -31 18 -68 18 -523 0
-464 -1 -492 -19 -529 -15 -29 -32 -44 -68 -60 l-48 -21 0 -52 0 -53 350 0
350 0 0 53 0 53 -42 14 c-50 18 -77 53 -89 111 -13 70 -11 755 3 800 6 22 27
57 45 79 92 107 232 130 308 50 51 -54 58 -101 62 -486 6 -471 -2 -521 -95
-554 l-42 -14 0 -53 0 -53 350 0 350 0 0 53 0 52 -49 22 c-88 38 -85 23 -92
528 -5 373 -8 449 -23 500 -57 199 -156 275 -366 282 -90 2 -114 0 -172 -21z"/>
<path d="M27733 7630 c-103 -21 -294 -83 -396 -129 l-67 -30 0 -131 0 -130
139 0 c154 0 141 -6 156 70 11 51 49 121 86 158 59 58 189 67 260 19 70 -47
99 -138 99 -309 0 -65 -3 -118 -7 -118 -33 0 -203 -23 -268 -36 -267 -52 -444
-153 -512 -293 -25 -50 -28 -67 -28 -156 0 -81 4 -109 22 -147 48 -105 147
-176 278 -199 171 -30 349 28 497 160 33 30 59 47 63 41 4 -6 3 -51 -1 -100
l-7 -90 272 0 271 0 0 55 c0 46 -3 55 -17 55 -10 0 -37 9 -61 20 -76 34 -75
30 -82 550 -6 432 -7 458 -27 513 -42 113 -113 182 -223 218 -95 31 -319 36
-447 9z m285 -887 c-5 -158 -20 -205 -83 -266 -52 -50 -110 -71 -185 -65 -68
5 -104 26 -134 78 -22 37 -25 120 -7 186 14 51 71 119 123 145 57 29 174 58
237 58 l54 1 -5 -137z"/>
<path d="M22968 7633 l-88 -4 0 -53 0 -53 39 -7 c51 -8 98 -48 111 -94 14 -53
13 -915 -1 -984 -13 -59 -51 -102 -99 -113 -29 -6 -30 -9 -30 -61 l0 -54 350
0 350 0 0 53 0 52 -51 22 c-87 39 -84 7 -87 701 l-3 602 -202 -2 c-111 -1
-241 -4 -289 -5z"/>
<path d="M15730 5080 l0 -180 200 0 200 0 0 180 0 180 -200 0 -200 0 0 -180z"/>
<path d="M22240 5080 l0 -180 200 0 200 0 0 180 0 180 -200 0 -200 0 0 -180z"/>
<path d="M11852 5169 c3 -50 4 -52 44 -68 51 -20 73 -38 87 -71 8 -17 14 -217
18 -650 5 -544 8 -633 23 -689 38 -147 125 -268 241 -336 138 -82 363 -118
594 -97 278 26 440 118 526 296 65 136 68 172 74 846 4 412 10 613 18 630 15
35 43 57 89 73 38 14 39 15 42 65 l3 52 -315 0 -316 0 0 -50 0 -50 55 -25 c95
-41 90 -4 90 -700 0 -647 -3 -700 -52 -807 -49 -110 -135 -158 -283 -158 -181
0 -263 63 -318 245 -13 42 -16 149 -20 660 -4 641 -1 695 39 731 12 11 40 26
62 35 41 16 42 18 45 68 l3 51 -376 0 -376 0 3 -51z"/>
<path d="M23186 5038 c-2 -7 -8 -58 -14 -113 -20 -195 -63 -267 -175 -300
l-57 -16 0 -55 0 -54 84 0 84 0 5 -447 c3 -349 8 -460 19 -504 48 -181 150
-269 340 -291 162 -19 288 20 444 135 l72 53 -44 59 c-24 32 -46 60 -48 62 -3
3 -20 -7 -39 -21 -78 -60 -194 -74 -245 -31 -68 57 -81 166 -82 668 l0 317
205 0 205 0 0 95 0 95 -205 0 -205 0 0 180 0 180 -170 0 c-128 0 -172 -3 -174
-12z"/>
<path d="M14710 4699 c-87 -24 -186 -81 -287 -166 l-53 -45 1 49 c0 26 4 74 8
106 l7 57 -181 0 c-100 0 -230 -3 -288 -7 l-107 -6 0 -51 0 -52 46 -12 c50
-14 88 -48 98 -90 12 -49 18 -723 8 -870 -11 -163 -19 -183 -90 -217 -42 -19
-42 -20 -42 -72 l0 -53 345 0 345 0 0 53 c-1 51 -1 52 -42 72 -23 11 -51 33
-62 48 -20 27 -21 43 -24 437 -3 398 -2 410 18 450 49 96 153 158 247 147 59
-6 92 -32 122 -91 23 -45 25 -66 34 -285 7 -157 7 -304 1 -434 -11 -222 -16
-235 -92 -272 -41 -20 -41 -21 -42 -72 l0 -53 350 0 350 0 0 53 0 54 -39 12
c-51 15 -88 60 -95 114 -3 23 -8 220 -10 437 -3 217 -9 418 -15 445 -30 156
-111 263 -230 303 -70 24 -213 29 -281 11z"/>
<path d="M18405 4695 c-298 -65 -483 -288 -514 -622 -25 -277 37 -508 173
-647 120 -120 258 -169 481 -169 245 -1 385 54 563 219 l63 59 -58 66 -59 65
-64 -54 c-36 -31 -92 -68 -125 -83 -142 -67 -329 -52 -431 34 -65 55 -124 226
-124 358 l0 49 449 0 449 0 -4 78 c-24 382 -164 585 -449 648 -76 17 -271 16
-350 -1z m245 -164 c65 -32 107 -147 124 -333 l5 -58 -231 0 -231 0 7 71 c8
84 47 209 81 259 56 81 154 105 245 61z"/>
<path d="M20285 4697 c-85 -22 -165 -69 -240 -139 -40 -38 -76 -68 -80 -68 -7
0 1 129 11 183 l6 27 -185 0 c-101 0 -232 -3 -290 -7 l-107 -6 0 -54 c0 -44 3
-53 18 -53 9 0 36 -9 60 -20 78 -35 77 -27 77 -570 0 -436 -1 -479 -18 -522
-16 -41 -26 -51 -68 -70 l-49 -23 0 -52 0 -53 355 0 355 0 0 54 c0 53 -1 55
-32 61 -56 12 -86 41 -103 97 -21 72 -22 751 -1 821 17 56 45 94 98 130 45 30
107 36 152 16 29 -14 68 -68 85 -121 l13 -38 134 0 134 0 0 199 c0 143 -3 202
-12 207 -22 14 -261 14 -313 1z"/>
<path d="M21235 4704 c-11 -2 -51 -12 -90 -20 -159 -37 -291 -134 -335 -249
-36 -92 -33 -200 7 -285 34 -72 101 -145 180 -196 28 -19 120 -67 205 -108
171 -83 228 -125 247 -184 18 -54 10 -145 -16 -180 -39 -53 -79 -67 -183 -67
-87 0 -100 3 -149 30 -60 33 -111 99 -137 177 l-16 48 -99 0 -99 0 0 -174 c0
-158 2 -175 18 -180 27 -7 168 -34 257 -47 118 -19 373 -16 465 4 159 35 283
124 336 240 23 51 29 80 32 159 5 117 -10 172 -73 256 -55 75 -142 133 -322
215 -231 106 -265 136 -271 242 -3 50 0 66 20 94 35 52 85 73 172 73 127 0
193 -46 248 -174 l20 -48 99 0 99 0 0 169 0 168 -107 18 c-103 17 -459 30
-508 19z"/>
<path d="M15633 4693 l-73 -4 0 -54 c0 -50 2 -55 23 -55 38 -1 90 -34 112 -70
19 -34 20 -53 23 -474 3 -434 -3 -552 -31 -597 -6 -11 -33 -30 -59 -42 l-48
-22 0 -52 0 -53 350 0 350 0 0 53 c0 54 0 54 -38 65 -21 7 -47 21 -56 31 -44
48 -45 66 -46 689 l0 592 -217 -2 c-120 -1 -251 -4 -290 -5z"/>
<path d="M22142 4693 l-73 -4 3 -51 3 -51 47 -14 c57 -16 95 -58 103 -116 3
-23 5 -249 3 -502 -3 -533 -1 -520 -87 -558 l-51 -22 0 -52 0 -53 350 0 350 0
0 53 0 52 -51 22 c-87 39 -84 7 -87 701 l-3 602 -217 -2 c-119 -1 -250 -4
-290 -5z"/>
<path d="M16320 4641 c0 -43 3 -51 23 -56 41 -13 87 -56 111 -103 13 -26 115
-311 227 -635 l204 -587 138 2 139 3 239 530 c329 729 340 750 414 776 34 13
35 15 35 66 l0 53 -280 0 -280 0 0 -48 c0 -47 1 -47 48 -69 27 -13 54 -34 65
-51 22 -38 22 -120 1 -193 -16 -54 -242 -607 -254 -622 -8 -9 -216 628 -231
708 -19 101 10 151 96 167 17 3 21 12 23 56 l3 52 -360 0 -361 0 0 -49z"/>
<path d="M23970 4641 c0 -43 3 -51 23 -56 45 -14 87 -56 116 -118 23 -48 251
-694 403 -1139 19 -55 21 -58 54 -58 19 0 34 -2 34 -5 0 -10 -51 -107 -91
-176 -95 -159 -191 -220 -278 -174 -26 13 -61 67 -61 94 0 7 -30 11 -85 11
l-85 0 0 -169 0 -170 55 -11 c79 -16 225 -14 289 4 107 32 222 132 309 273 52
83 139 267 376 796 343 765 361 799 441 831 39 16 40 17 40 66 l0 50 -285 0
-285 0 0 -48 c0 -47 1 -47 48 -69 27 -13 54 -34 65 -51 22 -38 22 -120 1 -193
-16 -54 -242 -607 -254 -622 -8 -9 -216 628 -231 708 -19 101 10 151 96 167
17 3 21 12 23 56 l3 52 -360 0 -361 0 0 -49z"/>
<path d="M23915 1804 c-55 -24 -108 -47 -117 -52 -14 -6 -7 -24 52 -127 l69
-120 -70 -3 c-38 -2 -100 -2 -137 0 l-67 3 32 20 33 21 -60 78 c-32 42 -83
105 -112 139 -28 34 -53 63 -54 65 -1 2 -47 -27 -102 -63 l-101 -67 75 -97 74
-96 -145 -3 -145 -3 0 -229 0 -230 135 0 135 0 0 110 0 110 590 0 590 0 0
-110 0 -110 135 0 135 0 0 230 0 229 -126 3 -127 3 71 84 c67 82 69 85 49 96
-12 6 -70 37 -129 69 l-107 57 -103 -155 -103 -155 -100 -1 -100 0 52 25 53
24 -54 93 c-30 51 -69 118 -88 149 l-34 56 -99 -43z"/>
<path d="M14670 1695 l0 -135 -350 0 -350 0 0 -125 0 -125 315 0 315 0 -26
-42 c-45 -72 -158 -219 -236 -305 -117 -131 -256 -251 -447 -389 -1 -2 23 -34
55 -71 33 -38 75 -90 94 -115 19 -26 37 -48 40 -48 3 0 54 45 113 101 l107
101 0 -106 0 -106 185 0 185 0 0 -160 0 -160 135 0 135 0 0 160 0 160 185 0
184 0 3 114 3 114 110 -99 109 -100 26 33 c14 18 58 73 99 121 40 48 72 89 70
91 -2 2 -44 29 -92 61 -194 128 -386 318 -547 540 l-72 100 316 3 316 2 0 125
0 125 -355 0 -355 0 0 135 0 135 -135 0 -135 0 0 -135z m464 -925 c32 -41 86
-103 120 -137 l60 -63 -187 0 -187 0 0 237 0 237 68 -100 c37 -54 94 -133 126
-174z m-464 25 l0 -225 -171 0 -171 0 32 37 c112 134 197 245 247 323 32 49
59 90 61 90 1 0 2 -101 2 -225z"/>
<path d="M21560 1733 c0 -49 -3 -152 -7 -230 l-6 -143 -364 0 -363 0 0 -135 0
-135 350 0 350 0 -6 -32 c-25 -137 -82 -276 -158 -382 -91 -127 -278 -282
-443 -365 -35 -17 -77 -40 -94 -50 l-30 -19 68 -73 c37 -41 85 -95 106 -121
l38 -46 67 40 c178 108 332 235 428 353 91 111 203 313 204 367 0 7 16 -22 34
-64 121 -275 347 -517 605 -647 35 -18 67 -29 70 -24 4 4 27 33 51 63 24 30
70 85 102 122 56 64 58 67 36 74 -13 3 -65 26 -117 50 -239 111 -417 281 -526
499 -39 79 -95 224 -95 247 0 4 164 8 365 8 l365 0 0 135 0 135 -379 0 -380 0
4 103 c3 56 7 159 9 230 l5 127 -145 0 -144 0 0 -87z"/>
<path d="M19293 1783 c-46 -139 -141 -347 -212 -468 l-29 -50 47 -94 48 -93
20 25 20 26 43 -44 44 -45 -30 -31 c-16 -17 -60 -59 -98 -92 l-70 -60 -13 39
c-7 21 -27 67 -45 100 l-32 62 67 254 c59 225 67 266 67 347 l0 91 -275 0
-275 0 0 -870 0 -870 110 0 110 0 2 213 c1 116 3 188 5 159 l4 -52 47 0 c79 0
123 18 174 71 62 64 81 127 80 268 -1 114 -2 113 53 18 l28 -48 38 37 39 38 0
-77 0 -77 170 0 170 0 0 -129 c0 -171 -4 -177 -123 -173 l-84 2 19 -97 c11
-54 21 -109 24 -122 5 -24 5 -24 122 -19 134 6 176 20 221 76 42 50 51 101 51
291 l0 171 175 0 175 0 0 76 0 75 29 -20 28 -21 44 123 c24 67 44 125 44 128
0 3 -36 33 -80 67 -44 33 -99 80 -122 104 l-41 43 109 170 109 170 0 93 0 92
-219 0 -219 0 -6 63 -7 64 -87 -14 c-48 -7 -91 -13 -96 -13 -5 0 -6 -22 -3
-50 l6 -50 -109 0 c-61 0 -110 1 -110 3 0 2 7 25 16 51 9 26 14 49 12 51 -4 4
-155 35 -171 35 -4 0 -10 -8 -14 -17z m-408 -310 c-8 -32 -30 -130 -50 -218
-19 -88 -37 -164 -40 -170 -2 -5 -4 92 -4 218 l-1 227 54 0 54 0 -13 -57z
m645 3 c0 -6 -40 -100 -45 -104 -5 -5 -115 79 -115 88 0 3 3 10 7 13 7 7 153
10 153 3z m550 -1 c0 -3 -24 -42 -54 -86 l-54 -81 -17 32 c-10 19 -25 57 -36
87 l-18 53 90 0 c49 0 89 -2 89 -5z m-334 -145 c19 -56 50 -133 69 -172 19
-38 35 -71 35 -74 0 -2 -69 -4 -154 -4 l-154 0 48 93 c26 50 63 131 81 179 18
49 34 86 37 84 2 -3 19 -50 38 -106z m-346 -115 c0 -5 -7 -18 -15 -29 -13 -18
-16 -17 -65 24 -55 46 -58 54 -34 89 l16 23 49 -48 c27 -27 49 -53 49 -59z
m-533 -349 c28 -82 39 -185 26 -236 -10 -39 -50 -65 -83 -55 -19 6 -20 16 -20
228 l0 222 27 -44 c14 -24 37 -76 50 -115z m843 24 l229 0 3 23 c3 21 12 14
82 -60 l78 -83 -397 0 -397 0 41 48 c23 26 60 72 84 104 l42 56 3 -44 3 -44
229 0z"/>
<path d="M16270 885 l0 -865 135 0 135 0 0 30 0 30 570 0 570 0 0 -30 0 -30
135 0 135 0 0 865 0 865 -840 0 -840 0 0 -865z m1410 35 l0 -600 -570 0 -570
0 0 600 0 600 570 0 570 0 0 -600z"/>
<path d="M16600 1310 l0 -110 180 0 180 0 0 -60 0 -60 -165 0 -165 0 0 -115 0
-115 165 0 165 0 0 -110 0 -110 -190 0 -190 0 0 -110 0 -110 525 0 525 0 0
110 0 110 -62 0 -63 1 48 43 48 43 -71 66 -70 67 60 0 60 0 0 115 0 115 -185
0 -185 0 0 60 0 60 200 0 200 0 0 110 0 110 -505 0 -505 0 0 -110z m697 -502
l-48 -42 68 -68 67 -68 -87 0 -87 0 0 110 0 110 68 -1 67 0 -48 -41z"/>
<path d="M11790 870 l0 -850 145 0 145 0 0 65 0 65 440 0 440 0 0 -65 0 -65
145 0 145 0 0 850 0 850 -730 0 -730 0 0 -850z m1170 395 l0 -185 -440 0 -440
0 0 185 0 185 440 0 440 0 0 -185z m0 -650 l0 -195 -440 0 -440 0 0 195 0 195
440 0 440 0 0 -195z"/>
<path d="M23480 1025 l0 -115 333 0 332 -1 -117 -76 c-95 -61 -118 -81 -118
-100 l0 -23 -400 0 -400 0 0 -120 0 -120 400 0 400 0 0 -65 c0 -128 -22 -141
-232 -138 -83 1 -148 -3 -148 -8 0 -5 9 -41 19 -81 11 -40 25 -92 31 -115 l11
-43 183 0 c211 0 265 11 326 66 66 60 73 82 78 242 l4 142 359 0 359 0 0 120
0 120 -337 2 -336 3 151 100 152 100 0 113 0 112 -525 0 -525 0 0 -115z"/>
<path d="M19235 437 c-61 -62 -136 -132 -166 -157 l-55 -44 70 -87 c54 -68 73
-86 85 -79 9 4 91 81 183 170 l167 161 -72 61 c-40 34 -79 67 -87 74 -13 10
-32 -5 -125 -99z"/>
<path d="M19941 479 l-75 -69 25 -28 c14 -15 53 -57 86 -94 34 -37 90 -103
125 -146 l64 -79 88 85 88 85 -158 158 c-87 88 -161 159 -164 159 -3 -1 -38
-32 -79 -71z"/>
</g>
</svg>
